<?xml version="1.0" encoding="utf-8"?>
<!-- Generator: Adobe Illustrator 23.1.0, SVG Export Plug-In . SVG Version: 6.00 Build 0)  -->
<svg version="1.1" id="Layer_1" xmlns="http://www.w3.org/2000/svg" xmlns:xlink="http://www.w3.org/1999/xlink" x="0px" y="0px"
	 viewBox="0 0 512 512" style="enable-background:new 0 0 512 512;" xml:space="preserve">
<style type="text/css">
	.st0{fill:#E83E4E;}
</style>
<g>
	<path class="st0" d="M306,193.4l-20.9-18.4L285.9,38C286,22.5,273.5,9.9,258,9.7c-15.3-0.1-28.2,12.6-28.3,27.9l-0.8,135.8
		l-30.1,26.1l-152,131.6l-0.2,27.7l181.7-86.2l-0.8,150.1l-40.8,59.3l-0.2,19l68.2-26.6l67.7,27.6l0.1-19.1l-38.9-59.8l0.9-150.7
		l180.6,88.7l0.2-27.7L306,193.4z"/>
	<path class="st0" d="M139.9,257.2c0.9,20.7-3.1,37.7-8.8,37.9c-5.8,0.2-11.2-16.3-12-37c-0.9-20.7,3.1-37.6,8.8-37.9
		C133.6,219.9,139,236.5,139.9,257.2z"/>
	<path class="st0" d="M189.7,224c0.7,21.6-3.3,39.2-9.1,39.5c-5.8,0.3-11-17-11.8-38.6c-0.7-21.6,3.3-39.2,9.1-39.5
		C183.7,185.2,189,202.4,189.7,224z"/>
	<path class="st0" d="M374.8,259.9c0.9,21.8,6.4,39.2,12.1,39c5.8-0.2,9.7-18.1,8.7-39.9c-0.9-21.8-6.4-39.2-12.1-39
		C377.8,220.3,373.9,238.2,374.8,259.9z"/>
	<path class="st0" d="M325.6,221.2c0.7,19.5,6,35.2,11.8,34.9c5.8-0.3,9.8-16.4,9.1-35.9c-0.7-19.6-6-35.2-11.8-34.9
		C328.9,185.6,324.8,201.7,325.6,221.2z"/>
</g>
</svg>
