<?xml version="1.0" encoding="utf-8"?>
<!-- Generator: Adobe Illustrator 24.3.0, SVG Export Plug-In . SVG Version: 6.00 Build 0)  -->
<svg version="1.1" id="Layer_1" xmlns="http://www.w3.org/2000/svg" xmlns:xlink="http://www.w3.org/1999/xlink" x="0px" y="0px"
	 viewBox="0 0 100 100" style="enable-background:new 0 0 100 100;" xml:space="preserve">
<style type="text/css">
	.st0{fill:#EDDA28;stroke:#000000;stroke-width:0.25;stroke-miterlimit:10;}
</style>
<path class="st0" d="M78.46,10.66c-0.79-0.79-2.13-0.74-2.99,0.12L62.14,24.1c-1.6-8.26-6.13-14.21-11.47-14.21
	c-5.59,0-10.27,6.51-11.67,15.36L24.53,10.77c-0.85-0.86-2.19-0.91-2.99-0.11c-0.79,0.79-0.74,2.13,0.12,2.99l16.91,16.91
	c0,0.05-0.01,0.1-0.01,0.15c0,5.34,1.18,10.19,3.09,13.86l-20,20.01c-0.86,0.86-0.91,2.19-0.12,2.98c0.79,0.79,2.13,0.74,2.99-0.12
	l19.42-19.42c0.82,0.94,1.72,1.7,2.66,2.28V77.3l-12.17,8.21v4.6l12.81-5.69h6.86l12.8,5.69v-4.6L54.73,77.3V50.3
	c0.7-0.43,1.37-0.96,2-1.59l18.73,18.73c0.86,0.86,2.2,0.91,2.99,0.12c0.79-0.79,0.74-2.13-0.12-2.98L59.22,45.46
	c2.2-3.77,3.56-8.98,3.56-14.75c0-0.5-0.02-0.98-0.04-1.47l15.6-15.6C79.2,12.78,79.25,11.45,78.46,10.66L78.46,10.66z M78.46,10.66
	"/>
</svg>
