<?xml version="1.0" encoding="utf-8"?>
<!-- Generator: Adobe Illustrator 23.1.0, SVG Export Plug-In . SVG Version: 6.00 Build 0)  -->
<svg version="1.1" id="Layer_1" xmlns="http://www.w3.org/2000/svg" xmlns:xlink="http://www.w3.org/1999/xlink" x="0px" y="0px"
	 viewBox="0 0 512 512" style="enable-background:new 0 0 512 512;" xml:space="preserve">
<style type="text/css">
	.st0{fill:#E9C53C;}
</style>
<g>
	<path class="st0" d="M285,445.9c-70.7-1.3-56.1,6-57.7-13.4c2.5-244.8-13.6-413.8,25.8-417.4c46.1-3.2,28,157.6,31.5,175.8
		C284.7,270.2,284.9,380.7,285,445.9z"/>
	<path class="st0" d="M236.5,182.5c-55.1,31.3-135.7,95.3-201.7,149c-5.1-0.2-3.6,15.8-3.7,27.5c16.5-5.6,155.4-63.3,163.3-66.7
		c10.3,0,41-0.4,44.5-0.4C242.4,291.7,236.5,182.5,236.5,182.5z"/>
	<path class="st0" d="M176.4,225.4c-1.3,54.6-24.3,49.5-24.9,0C152.8,170.8,175.8,175.9,176.4,225.4z"/>
	<path class="st0" d="M275,182.4c55.2,31.1,135.9,95,202.1,148.4c5.1-0.2,3.6,15.8,3.7,27.4c-16.6-5.5-155.5-62.9-163.5-66.3
		c-10.3,0-41-0.3-44.5-0.3C269.4,291.7,275,182.4,275,182.4z"/>
	<path class="st0" d="M335.2,225.1c1.5,54.6,24.4,49.4,24.9,0C358.7,170.5,335.8,175.7,335.2,225.1z"/>
	<path class="st0" d="M251,418.2c30.3,25.5,103.7,41.1,91.1,79C234,459.9,250.1,473.8,251,418.2z"/>
	<path class="st0" d="M262.8,418.2c-30.3,25.5-103.7,41.1-91.1,79C279.7,459.9,263.6,473.8,262.8,418.2z"/>
</g>
</svg>
