<?xml version="1.0" encoding="utf-8"?>
<!-- Generator: Adobe Illustrator 23.1.0, SVG Export Plug-In . SVG Version: 6.00 Build 0)  -->
<svg version="1.1" id="Layer_1" xmlns="http://www.w3.org/2000/svg" xmlns:xlink="http://www.w3.org/1999/xlink" x="0px" y="0px"
	 viewBox="0 0 512 512" style="enable-background:new 0 0 512 512;" xml:space="preserve">
<style type="text/css">
	.st0{fill:#E9C53C;}
</style>
<path class="st0" d="M67.6,234.9h158l0.2,154.5l-61.5,45.3v21.2c0,2.3,0.3,6.4,2.2,7.9c1,0.8,4.1,2.3,12.8,0.6l76.3-21.9l77.3,22
	c8.1,1.6,11.2,0,12.2-0.7c1.9-1.5,2.2-5.6,2.2-7.9v-21.2l-60.7-44.6l0.9-155.2h156.9c24.9,0,45-20.2,45-45v0c0-24.9-20.2-45-45-45
	H288.3l0.1-23.2h0.2c-2-42.9-8.9-74.7-31.5-74.7c-22.5,0-29.7,31-31.9,73.8v0.9l0,23.2H67.6c-24.9,0-45,20.2-45,45v0
	C22.5,214.7,42.7,234.9,67.6,234.9z"/>
</svg>
