<?xml version="1.0" encoding="utf-8"?>
<!-- Generator: Adobe Illustrator 23.1.0, SVG Export Plug-In . SVG Version: 6.00 Build 0)  -->
<svg version="1.1" id="Layer_1" xmlns="http://www.w3.org/2000/svg" xmlns:xlink="http://www.w3.org/1999/xlink" x="0px" y="0px"
	 viewBox="0 0 512 512" style="enable-background:new 0 0 512 512;" xml:space="preserve">
<style type="text/css">
	.st0{fill:#E9C53C;}
</style>
<g>
	<path class="st0" d="M451.4,326.7l0.1,25.9L282,271.4l0.6,140.7l36.9,55.5l0.1,17.9l-63.5-25.2l-63.5,25.5l0-17.8l37.5-55.8
		l-0.6-140.2L60.6,354.2l-0.1-25.9L201.2,204l27.9-24.7l-0.6-126.8c-0.1-14.3,11.9-26.3,26.2-26.3c14.4,0,26.2,11.7,26.3,26.1
		l0.6,128l19.7,17L451.4,326.7z"/>
	<path class="st0" d="M185.1,229.8c0.7,21.6-3.3,39.2-9.1,39.5c-5.8,0.3-11-17-11.8-38.6c-0.7-21.6,3.3-39.2,9.1-39.5
		C179.1,191,184.4,208.3,185.1,229.8z"/>
	<path class="st0" d="M326.9,228.6c0.7,19.5,6,35.2,11.8,34.9c5.8-0.3,9.8-16.4,9.1-35.9c-0.7-19.6-6-35.2-11.8-34.9
		C330.3,193,326.2,209.1,326.9,228.6z"/>
</g>
</svg>
