<?xml version="1.0" encoding="utf-8"?>
<!-- Generator: Adobe Illustrator 23.1.0, SVG Export Plug-In . SVG Version: 6.00 Build 0)  -->
<svg version="1.1" id="Layer_1" xmlns="http://www.w3.org/2000/svg" xmlns:xlink="http://www.w3.org/1999/xlink" x="0px" y="0px"
	 viewBox="0 0 512 512" style="enable-background:new 0 0 512 512;" xml:space="preserve">
<style type="text/css">
	.st0{fill:#E83E4E;}
</style>
<g>
	<g>
		<g>
			<g>
				<path class="st0" d="M252.4,360.2c-16.4,9.7-75.9,40.4-79.3,43.2c0,6.5,0.1,15.2,0.1,19.3c7.5-2.6,77.4-25.3,80.3-25.9
					C252.7,379.1,252.4,360.2,252.4,360.2z"/>
				<path class="st0" d="M252.3,346.5c-16.4,9.7-75.9,40.4-79.3,43.2c0,6.5,0.1,15.2,0.1,19.3c7.5-2.6,77.4-25.3,80.3-25.9
					C252.6,365.5,252.3,346.5,252.3,346.5z"/>
			</g>
			<g>
				<path class="st0" d="M258.8,360.2c16.5,9.5,76.2,39.8,79.6,42.6c0,6.5,0.1,15.2,0.1,19.3c-7.5-2.5-77.6-24.7-80.5-25.3
					C258.6,379.1,258.8,360.2,258.8,360.2z"/>
				<path class="st0" d="M258.7,346.5c16.5,9.5,76.2,39.8,79.6,42.6c0,6.5,0.1,15.2,0.1,19.3c-7.5-2.6-77.6-24.7-80.5-25.3
					C258.6,365.4,258.7,346.5,258.7,346.5z"/>
			</g>
			<path class="st0" d="M260.1,344.9l-9.2,0c0.1,33.7,2.3,61.1,4.8,61.1C258.3,406,260.2,378.7,260.1,344.9z"/>
		</g>
		<path class="st0" d="M281.6,373.1l-0.6-241c0-0.7-0.2-1.4-0.4-2.2c-2.2-23.1-12.7-40.6-25.3-40.6c-12.6,0-23,17.6-25.1,40.7
			c-0.2,0.7-0.4,1.4-0.4,2.2l0.6,241"/>
		<g>
			<path class="st0" d="M236.7,246.7c-20.3,0-221-8.1-229.3-11c0-7.4,0-17.7-0.1-26.9c21.7-2.4,223.2-22.8,229.2-22.9
				C236.7,236.9,236.7,246.7,236.7,246.7z"/>
			<path class="st0" d="M275.4,246.6c20.3,0,221-9.1,229.2-12c0-7.4,0-17.7-0.1-26.9c-21.8-2.3-223.3-21.8-229.3-21.8
				C275.4,236.8,275.4,246.6,275.4,246.6z"/>
		</g>
	</g>
</g>
</svg>
